<svg xmlns="http://www.w3.org/2000/svg" version="1.1" xmlns:xlink="http://www.w3.org/1999/xlink" xmlns:svgjs="http://svgjs.com/svgjs" width="100%" height="100%"><svg width="100%" height="100%" viewBox="0 0 31 31" version="1.1" xmlns="http://www.w3.org/2000/svg" xmlns:xlink="http://www.w3.org/1999/xlink" xml:space="preserve" xmlns:serif="http://www.serif.com/" style="fill-rule:evenodd;clip-rule:evenodd;stroke-linecap:round;stroke-linejoin:round;stroke-miterlimit:1.5;">
    <g transform="matrix(1,0,0,1,-389.124,-62.3263)">
        <g transform="matrix(0.75,0,0,1,0,0)">
            <g transform="matrix(0.487836,0,0,0.487836,115.147,39.8598)">
                <g transform="matrix(1.25778,0,0,0.943333,49.2929,4.41021)">
                    <rect x="619.803" y="45.231" width="65.19" height="65.19" style="fill:rgb(187,187,187);stroke:rgb(187,187,187);stroke-width:2.17px;"></rect>
                </g>
                <g>
                    <g transform="matrix(0.404968,0,0,0.303726,579.234,34.3659)">
                        <rect x="619.803" y="45.231" width="65.19" height="65.19" style="stroke:rgb(187,187,187);stroke-width:6.75px;"></rect>
                    </g>
                    <g transform="matrix(1.33333,0,0,1,-1.22441,-0.670893)">
                        <path d="M636.008,54.756C637.182,54.459 640.835,61.904 639.381,63.6C637.928,65.297 627.548,64.014 627.548,64.014C638.798,62.493 633.459,55.403 636.008,54.756Z" style="fill:rgb(187,187,187);"></path>
                    </g>
                    <g transform="matrix(1.33333,0,0,1,0,0)">
                        <circle cx="629.633" cy="55.919" r="2.085" style="fill:rgb(187,187,187);"></circle>
                    </g>
                </g>
                <g transform="matrix(1,0,0,1,26.4,0)">
                    <g transform="matrix(0.404968,0,0,0.303726,579.234,34.3659)">
                        <rect x="619.803" y="45.231" width="65.19" height="65.19" style="stroke:rgb(187,187,187);stroke-width:6.75px;"></rect>
                    </g>
                    <g transform="matrix(1.33333,0,0,1,-1.22441,-0.670893)">
                        <path d="M636.008,54.756C637.182,54.459 640.835,61.904 639.381,63.6C637.928,65.297 627.548,64.014 627.548,64.014C638.798,62.493 633.459,55.403 636.008,54.756Z" style="fill:rgb(187,187,187);"></path>
                    </g>
                    <g transform="matrix(1.33333,0,0,1,0,0)">
                        <circle cx="629.633" cy="55.919" r="2.085" style="fill:rgb(187,187,187);"></circle>
                    </g>
                </g>
                <g transform="matrix(1,0,0,1,52.8,0)">
                    <g transform="matrix(0.404968,0,0,0.303726,579.234,34.3659)">
                        <rect x="619.803" y="45.231" width="65.19" height="65.19" style="stroke:rgb(187,187,187);stroke-width:6.75px;"></rect>
                    </g>
                    <g transform="matrix(1.33333,0,0,1,-1.22441,-0.670893)">
                        <path d="M636.008,54.756C637.182,54.459 640.835,61.904 639.381,63.6C637.928,65.297 627.548,64.014 627.548,64.014C638.798,62.493 633.459,55.403 636.008,54.756Z" style="fill:rgb(187,187,187);"></path>
                    </g>
                    <g transform="matrix(1.33333,0,0,1,0,0)">
                        <circle cx="629.633" cy="55.919" r="2.085" style="fill:rgb(187,187,187);"></circle>
                    </g>
                </g>
                <g transform="matrix(1,0,0,1,0,19.8)">
                    <g transform="matrix(0.404968,0,0,0.303726,579.234,34.3659)">
                        <rect x="619.803" y="45.231" width="65.19" height="65.19" style="stroke:rgb(187,187,187);stroke-width:6.75px;"></rect>
                    </g>
                    <g transform="matrix(1.33333,0,0,1,-1.22441,-0.670893)">
                        <path d="M636.008,54.756C637.182,54.459 640.835,61.904 639.381,63.6C637.928,65.297 627.548,64.014 627.548,64.014C638.798,62.493 633.459,55.403 636.008,54.756Z" style="fill:rgb(187,187,187);"></path>
                    </g>
                    <g transform="matrix(1.33333,0,0,1,0,0)">
                        <circle cx="629.633" cy="55.919" r="2.085" style="fill:rgb(187,187,187);"></circle>
                    </g>
                </g>
                <g transform="matrix(1,0,0,1,26.43,19.8)">
                    <g transform="matrix(0.404968,0,0,0.303726,579.234,34.3659)">
                        <rect x="619.803" y="45.231" width="65.19" height="65.19" style="stroke:rgb(187,187,187);stroke-width:6.75px;"></rect>
                    </g>
                    <g transform="matrix(1.33333,0,0,1,-1.22441,-0.670893)">
                        <path d="M636.008,54.756C637.182,54.459 640.835,61.904 639.381,63.6C637.928,65.297 627.548,64.014 627.548,64.014C638.798,62.493 633.459,55.403 636.008,54.756Z" style="fill:rgb(187,187,187);"></path>
                    </g>
                    <g transform="matrix(1.33333,0,0,1,0,0)">
                        <circle cx="629.633" cy="55.919" r="2.085" style="fill:rgb(187,187,187);"></circle>
                    </g>
                </g>
                <g transform="matrix(1,0,0,1,52.8,19.8)">
                    <g transform="matrix(0.404968,0,0,0.303726,579.234,34.3659)">
                        <rect x="619.803" y="45.231" width="65.19" height="65.19" style="stroke:rgb(187,187,187);stroke-width:6.75px;"></rect>
                    </g>
                    <g transform="matrix(1.33333,0,0,1,-1.22441,-0.670893)">
                        <path d="M636.008,54.756C637.182,54.459 640.835,61.904 639.381,63.6C637.928,65.297 627.548,64.014 627.548,64.014C638.798,62.493 633.459,55.403 636.008,54.756Z" style="fill:rgb(187,187,187);"></path>
                    </g>
                    <g transform="matrix(1.33333,0,0,1,0,0)">
                        <circle cx="629.633" cy="55.919" r="2.085" style="fill:rgb(187,187,187);"></circle>
                    </g>
                </g>
                <g transform="matrix(1,0,0,1,0,39.6449)">
                    <g transform="matrix(0.404968,0,0,0.303726,579.234,34.3659)">
                        <rect x="619.803" y="45.231" width="65.19" height="65.19" style="stroke:rgb(187,187,187);stroke-width:6.75px;"></rect>
                    </g>
                    <g transform="matrix(1.33333,0,0,1,-1.22441,-0.670893)">
                        <path d="M636.008,54.756C637.182,54.459 640.835,61.904 639.381,63.6C637.928,65.297 627.548,64.014 627.548,64.014C638.798,62.493 633.459,55.403 636.008,54.756Z" style="fill:rgb(187,187,187);"></path>
                    </g>
                    <g transform="matrix(1.33333,0,0,1,0,0)">
                        <circle cx="629.633" cy="55.919" r="2.085" style="fill:rgb(187,187,187);"></circle>
                    </g>
                </g>
                <g transform="matrix(1,0,0,1,26.43,39.6449)">
                    <g transform="matrix(0.404968,0,0,0.303726,579.234,34.3659)">
                        <rect x="619.803" y="45.231" width="65.19" height="65.19" style="stroke:rgb(187,187,187);stroke-width:6.75px;"></rect>
                    </g>
                    <g transform="matrix(1.33333,0,0,1,-1.22441,-0.670893)">
                        <path d="M636.008,54.756C637.182,54.459 640.835,61.904 639.381,63.6C637.928,65.297 627.548,64.014 627.548,64.014C638.798,62.493 633.459,55.403 636.008,54.756Z" style="fill:rgb(187,187,187);"></path>
                    </g>
                    <g transform="matrix(1.33333,0,0,1,0,0)">
                        <circle cx="629.633" cy="55.919" r="2.085" style="fill:rgb(187,187,187);"></circle>
                    </g>
                </g>
                <g transform="matrix(1,0,0,1,52.8599,39.6449)">
                    <g transform="matrix(0.404968,0,0,0.303726,579.234,34.3659)">
                        <rect x="619.803" y="45.231" width="65.19" height="65.19" style="stroke:rgb(187,187,187);stroke-width:6.75px;"></rect>
                    </g>
                    <g transform="matrix(1.33333,0,0,1,-1.22441,-0.670893)">
                        <path d="M636.008,54.756C637.182,54.459 640.835,61.904 639.381,63.6C637.928,65.297 627.548,64.014 627.548,64.014C638.798,62.493 633.459,55.403 636.008,54.756Z" style="fill:rgb(187,187,187);"></path>
                    </g>
                    <g transform="matrix(1.33333,0,0,1,0,0)">
                        <circle cx="629.633" cy="55.919" r="2.085" style="fill:rgb(187,187,187);"></circle>
                    </g>
                </g>
            </g>
        </g>
    </g>
</svg><style>@media (prefers-color-scheme: light) { :root { filter: none; } }
</style></svg>